<svg width="345" height="225" viewBox="0 0 345 225" fill="none" xmlns="http://www.w3.org/2000/svg">
<g clip-path="url(#clip0_9_374)">
<path d="M123.533 194.961C124.781 184.976 131.001 175.139 140.572 171.89C136.797 182.166 136.798 193.44 140.574 203.716C142.045 207.674 144.094 211.924 142.711 215.913C141.85 218.394 139.745 220.293 137.391 221.481C135.037 222.668 132.425 223.234 129.846 223.789L129.338 224.206C125.243 215.007 122.285 204.945 123.533 194.961Z" fill="#F0F0F0"/>
<path d="M140.667 172.079C135.093 178.292 131.629 186.094 130.766 194.378C130.549 196.158 130.614 197.961 130.961 199.72C131.355 201.423 132.199 202.991 133.408 204.259C134.51 205.464 135.778 206.57 136.567 208.021C136.96 208.77 137.189 209.593 137.24 210.436C137.291 211.279 137.162 212.123 136.862 212.913C136.165 214.901 134.792 216.521 133.394 218.059C131.842 219.766 130.203 221.515 129.543 223.779C129.463 224.054 129.04 223.914 129.12 223.64C130.268 219.702 134.111 217.464 135.943 213.917C136.799 212.262 137.157 210.34 136.356 208.592C135.655 207.065 134.348 205.923 133.221 204.712C132.024 203.492 131.146 201.999 130.663 200.363C130.227 198.626 130.091 196.829 130.262 195.047C130.581 191.03 131.533 187.088 133.084 183.366C134.829 179.107 137.294 175.177 140.372 171.746C140.562 171.534 140.856 171.868 140.667 172.079Z" fill="white"/>
<path d="M130.886 191.694C129.509 191.361 128.295 190.552 127.462 189.412C126.629 188.271 126.23 186.873 126.338 185.467C126.361 185.183 126.806 185.204 126.783 185.489C126.681 186.798 127.052 188.101 127.83 189.161C128.608 190.222 129.741 190.971 131.026 191.273C131.305 191.339 131.163 191.76 130.886 191.694Z" fill="white"/>
<path d="M132.768 203.721C135.255 202.244 137.091 199.887 137.91 197.122C137.991 196.848 138.414 196.988 138.334 197.262C137.476 200.137 135.56 202.585 132.968 204.117C132.721 204.263 132.522 203.866 132.768 203.721L132.768 203.721Z" fill="white"/>
<path d="M135.243 179.527C135.749 179.767 136.306 179.877 136.866 179.849C137.425 179.821 137.969 179.654 138.448 179.366C138.693 179.217 138.892 179.614 138.648 179.762C138.118 180.078 137.517 180.261 136.899 180.294C136.281 180.326 135.664 180.208 135.103 179.949C135.048 179.928 135.003 179.888 134.976 179.836C134.95 179.784 134.945 179.724 134.961 179.668C134.98 179.613 135.02 179.567 135.073 179.54C135.126 179.514 135.187 179.509 135.243 179.527Z" fill="white"/>
<path d="M169.745 189.723C169.595 189.82 169.444 189.918 169.293 190.019C167.278 191.337 165.373 192.817 163.598 194.442C163.459 194.566 163.32 194.693 163.185 194.82C158.951 198.782 155.493 203.491 152.987 208.709C151.991 210.786 151.156 212.935 150.489 215.138C149.567 218.181 148.811 221.553 146.987 224.042C146.799 224.303 146.596 224.553 146.377 224.79H129.89C129.852 224.771 129.814 224.756 129.777 224.738L129.119 224.768C129.145 224.652 129.175 224.532 129.201 224.416C129.216 224.348 129.235 224.281 129.25 224.214C129.261 224.169 129.273 224.124 129.28 224.083C129.284 224.068 129.288 224.053 129.292 224.042C129.299 224 129.31 223.963 129.318 223.926C129.483 223.256 129.654 222.586 129.83 221.916C129.83 221.912 129.83 221.912 129.833 221.908C131.184 216.807 132.974 211.774 135.476 207.17C135.551 207.032 135.626 206.89 135.709 206.751C136.848 204.683 138.155 202.71 139.617 200.853C140.421 199.839 141.276 198.866 142.179 197.938C144.517 195.544 147.218 193.531 150.184 191.972C156.098 188.866 162.944 187.676 169.264 189.573C169.425 189.622 169.583 189.671 169.745 189.723Z" fill="#F0F0F0"/>
<path d="M169.708 189.931C161.498 191.553 154.01 195.708 148.308 201.805C147.058 203.096 146.019 204.575 145.231 206.188C144.515 207.783 144.241 209.541 144.438 211.277C144.589 212.9 144.932 214.543 144.684 216.174C144.544 217.007 144.23 217.801 143.76 218.505C143.29 219.208 142.676 219.805 141.959 220.256C140.2 221.426 138.123 221.897 136.076 222.288C133.803 222.721 131.436 223.136 129.539 224.548C129.309 224.719 129.056 224.355 129.285 224.184C132.585 221.727 137.008 222.242 140.618 220.507C142.302 219.698 143.752 218.379 144.169 216.503C144.534 214.863 144.182 213.169 144.014 211.527C143.797 209.836 144 208.118 144.604 206.522C145.307 204.875 146.286 203.358 147.5 202.038C150.186 199.022 153.332 196.445 156.823 194.401C160.793 192.047 165.14 190.385 169.674 189.489C169.954 189.434 169.987 189.876 169.708 189.931V189.931Z" fill="white"/>
<path d="M150.028 199.735C149.13 198.644 148.65 197.271 148.675 195.861C148.701 194.452 149.229 193.096 150.165 192.038C150.355 191.825 150.698 192.109 150.507 192.323C149.633 193.306 149.142 194.569 149.121 195.882C149.1 197.194 149.552 198.471 150.395 199.482C150.577 199.702 150.21 199.953 150.028 199.735Z" fill="white"/>
<path d="M144.252 210.465C147.133 210.775 150.025 209.993 152.352 208.276C152.582 208.106 152.836 208.471 152.605 208.641C150.18 210.423 147.169 211.23 144.173 210.901C143.887 210.869 143.968 210.433 144.252 210.465Z" fill="white"/>
<path d="M160.869 192.63C161.129 193.124 161.507 193.546 161.971 193.859C162.435 194.171 162.969 194.364 163.527 194.42C163.812 194.448 163.731 194.884 163.447 194.857C162.832 194.792 162.241 194.578 161.728 194.234C161.215 193.889 160.794 193.425 160.503 192.882C160.471 192.833 160.459 192.774 160.47 192.717C160.48 192.66 160.512 192.608 160.559 192.574C160.608 192.541 160.668 192.528 160.726 192.538C160.784 192.549 160.836 192.582 160.869 192.63Z" fill="white"/>
<path d="M179.109 2.48102C178.411 2.4818 177.741 2.75806 177.248 3.24919C176.754 3.74032 176.476 4.40621 176.476 5.10077V115.879C176.477 116.573 176.754 117.239 177.248 117.73C177.742 118.221 178.411 118.498 179.109 118.498H342.367C343.065 118.498 343.734 118.221 344.228 117.73C344.721 117.239 344.999 116.573 345 115.879V5.10077C344.999 4.40622 344.721 3.74034 344.228 3.24922C343.734 2.7581 343.065 2.48183 342.367 2.48102H179.109Z" fill="#E6E6E6"/>
<path d="M182.87 6.22351C182.172 6.22429 181.503 6.50055 181.009 6.99168C180.516 7.48281 180.238 8.1487 180.237 8.84326V112.136C180.238 112.831 180.516 113.497 181.009 113.988C181.503 114.479 182.172 114.755 182.87 114.756H338.605C339.303 114.755 339.973 114.479 340.466 113.988C340.96 113.497 341.237 112.831 341.238 112.136V8.84326C341.237 8.14871 340.96 7.48284 340.466 6.99171C339.973 6.50059 339.303 6.22432 338.605 6.22351H182.87Z" fill="white"/>
<path opacity="0.1" d="M326.562 28.8111C322.981 27.42 319.12 30.9088 318.281 34.6415C317.442 38.3742 318.515 42.2346 318.752 46.0523C318.988 49.87 317.982 54.3031 314.559 56.0435C310.622 58.0448 306.004 55.443 301.601 55.0467C299.403 54.8731 297.197 55.2568 295.189 56.1619C293.18 57.0671 291.436 58.4641 290.117 60.2225C286.486 65.1787 286.671 72.3753 282.374 76.7729C278.641 80.5938 272.557 81.0913 267.334 79.9097C262.111 78.7282 257.31 76.1613 252.175 74.648C247.039 73.1347 241.095 72.8188 236.694 75.856C232.099 79.0267 230.055 85.2419 225.011 87.6434C221.445 89.3415 217.223 88.6937 213.407 87.6655C209.591 86.6372 205.742 85.2501 201.802 85.5801C197.863 85.91 193.755 88.6146 193.443 92.5359L328.662 92.1603C329.276 74.4036 329.89 56.6469 330.505 38.8903C330.638 35.0329 330.176 30.2148 326.562 28.8111Z" fill="#6C63FF"/>
<path d="M124.193 124.089C123.958 123.472 123.861 122.811 123.91 122.152C123.959 121.494 124.153 120.854 124.478 120.278C124.802 119.702 125.249 119.204 125.788 118.819C126.327 118.434 126.945 118.171 127.597 118.048L129.972 102.175L136.214 107.741L133.001 121.962C133.135 123.065 132.857 124.179 132.221 125.093C131.584 126.006 130.633 126.655 129.547 126.918C128.461 127.18 127.317 127.037 126.33 126.515C125.343 125.994 124.583 125.131 124.193 124.089Z" fill="#FFB6B6"/>
<path d="M80.6353 126.499C81.0407 125.976 81.3259 125.371 81.4709 124.727C81.616 124.083 81.6172 123.415 81.4747 122.77C81.3321 122.125 81.0492 121.519 80.6458 120.995C80.2424 120.471 79.7284 120.041 79.14 119.735L81.4965 103.859L73.8996 107.384L72.8265 121.92C72.3766 122.937 72.3175 124.084 72.6604 125.142C73.0033 126.2 73.7243 127.096 74.6868 127.66C75.6494 128.224 76.7865 128.418 77.8829 128.204C78.9792 127.99 79.9586 127.383 80.6353 126.499V126.499Z" fill="#FFB6B6"/>
<path d="M114.027 217.782L121.076 217.781L124.429 190.733L114.026 190.734L114.027 217.782Z" fill="#FFB6B6"/>
<path d="M112.229 215.492L126.11 215.492H126.111C128.457 215.492 130.707 216.419 132.366 218.07C134.025 219.72 134.957 221.958 134.957 224.292V224.578L112.23 224.579L112.229 215.492Z" fill="#2F2E41"/>
<path d="M76.4103 217.782L83.4586 217.781L86.8118 190.733L76.4092 190.734L76.4103 217.782Z" fill="#FFB6B6"/>
<path d="M74.6125 215.492L88.4935 215.492H88.4941C90.8401 215.492 93.09 216.419 94.7489 218.07C96.4079 219.72 97.3399 221.958 97.3401 224.292V224.578L74.613 224.579L74.6125 215.492Z" fill="#2F2E41"/>
<path d="M109.581 33.1527C116.613 33.1527 122.313 27.4813 122.313 20.4852C122.313 13.4891 116.613 7.81763 109.581 7.81763C102.549 7.81763 96.8481 13.4891 96.8481 20.4852C96.8481 27.4813 102.549 33.1527 109.581 33.1527Z" fill="#FFB6B6"/>
<path d="M79.4405 111.811C79.4405 111.811 79.6279 168.496 78.7184 169.401C77.809 170.306 74.5806 204.206 74.5806 204.206H85.8657C86.618 204.206 105.815 130.36 105.815 130.36C105.815 130.36 114 170.172 112.636 172.434C111.272 174.696 112.335 204.35 113.091 206.818C113.091 206.818 122.573 209.837 123.483 207.575C124.392 205.313 125.74 174.641 125.74 174.641L128.373 123.743L128.43 110.454L79.4405 111.811Z" fill="#2F2E41"/>
<path d="M131.735 46.6635H136.801C137.174 46.6633 137.535 46.7892 137.826 47.0204C138.116 47.2517 138.319 47.5745 138.401 47.9358C139.183 51.38 141.198 61.1429 140.83 68.8317C140.375 78.3324 139.465 93.262 139.465 94.6193C139.465 95.9765 134.918 116.787 134.918 116.787C134.918 116.787 131.792 111.676 128.353 112.648L129.007 94.1669L129.916 86.4759L128.552 72.9035L131.735 46.6635Z" fill="#E4E4E4"/>
<path d="M99.4489 38.3802C99.4489 38.3802 83.3058 43.7228 81.4869 48.2469C79.668 52.771 88.4989 85.5691 88.4989 85.5691C88.4989 85.5691 85.1134 100.539 80.5774 114.752C78.5131 121.22 98.2127 115.682 107.307 112.515C112.943 110.571 123.366 113.557 129.234 112.49C129.234 112.49 130.143 100.274 129.234 98.0123C128.324 95.7503 126.051 97.1075 127.415 93.9406C128.779 90.7737 128.324 90.3213 127.87 88.9641C127.415 87.6068 128.779 85.7972 128.779 83.9875C128.779 82.1779 128.325 78.1062 128.325 78.1062C128.325 78.1062 140.602 49.6042 137.874 46.8897C135.146 44.1752 121.257 38.9449 121.257 38.9449C121.257 38.9449 121.602 39.162 99.4489 38.3802Z" fill="#E4E4E4"/>
<path d="M84.4427 46.6635L82.8278 47.4669C82.1991 47.7796 81.6517 48.2328 81.2285 48.7911C80.8052 49.3493 80.5176 49.9974 80.3881 50.6847L73.9838 84.6662L72.6196 116.787C72.6196 116.787 80.3501 114.525 82.6238 116.787C82.6238 116.787 80.3501 110.001 81.7143 107.739C83.0785 105.477 83.0785 102.31 83.0785 102.31C83.0785 102.31 82.169 102.31 84.4427 100.048C86.7164 97.7862 87.1711 96.8813 86.7164 96.4289C86.2617 95.9765 85.8069 91.9048 85.8069 91.4524C85.8069 91 90.3543 60.6883 90.3543 60.6883L84.4427 46.6635Z" fill="#E4E4E4"/>
<path d="M192.797 92.0989C192.597 92.0989 192.406 92.0201 192.265 91.8797C192.123 91.7393 192.044 91.549 192.044 91.3504C192.044 91.1519 192.123 90.9615 192.265 90.8212C192.406 90.6808 192.597 90.6019 192.797 90.6019C227.56 90.6019 260.714 83.6768 286.151 71.1022C310.003 59.3108 325.202 43.3211 327.852 27.2327C327.867 27.1355 327.902 27.0424 327.954 26.9587C328.006 26.8749 328.074 26.8022 328.154 26.7446C328.234 26.687 328.325 26.6457 328.421 26.6231C328.518 26.6004 328.617 26.5969 328.715 26.6126C328.813 26.6284 328.906 26.6632 328.99 26.7149C329.074 26.7667 329.147 26.8344 329.205 26.9143C329.263 26.9942 329.304 27.0846 329.327 27.1804C329.349 27.2762 329.353 27.3754 329.337 27.4725L329.337 27.4746C327.96 35.8319 323.493 44.0297 316.059 51.8407C308.728 59.5445 298.89 66.4762 286.82 72.4428C261.18 85.1183 227.788 92.0989 192.797 92.0989Z" fill="#6C63FF"/>
<path d="M335.596 92.25H191.899V21.6185H192.651V91.5015H335.596V92.25Z" fill="#E6E6E6"/>
<path d="M97.5799 24.7525C96.998 23.3314 96.9044 21.7588 97.3137 20.2793C98.3537 23.0238 100.42 22.186 101.473 20.8989C102.793 19.2849 102.413 15.5575 104.498 15.3907C106.583 15.2239 108.668 15.6164 110.722 16.0072C110.382 15.4273 110.041 14.8475 109.701 14.2676C111.187 14.3594 112.673 14.4511 114.159 14.5429C113.717 13.8186 113.274 13.0943 112.832 12.37C114.852 13.0763 116.7 14.1981 118.255 15.6625C119.811 17.1268 121.038 18.9008 121.859 20.8687C122.629 19.6274 123.11 18.2295 123.264 16.7785C123.418 15.3274 123.241 13.8606 122.748 12.4865C122.255 11.1124 121.457 9.8663 120.414 8.84055C119.371 7.81481 118.11 7.03569 116.723 6.56091C117.309 5.79569 117.895 5.03049 118.482 4.2653L106.549 3.09383C106.519 2.52162 106.63 1.95083 106.872 1.43088C107.114 0.910931 107.48 0.45749 107.938 0.10982C106.375 -0.241226 104.718 0.285377 103.39 1.17683C102.062 2.06829 101.006 3.29761 99.9679 4.5111C98.3958 6.34849 96.8047 8.21465 95.7756 10.3995C94.72 12.7256 94.33 15.2962 94.6483 17.8286C94.9667 20.3609 95.9811 22.7568 97.5799 24.7525ZM97.7242 19.1781L97.7244 19.1774L97.7363 19.1753L97.7242 19.1781Z" fill="#2F2E41"/>
<path d="M243.941 225H0.447948C0.329382 225 0.215792 224.953 0.132075 224.869C0.0483574 224.786 0.00134277 224.672 0.00134277 224.554C0.00134277 224.436 0.0483574 224.323 0.132075 224.24C0.215792 224.156 0.329382 224.109 0.447948 224.109H243.941C244.059 224.109 244.173 224.156 244.257 224.24C244.34 224.323 244.387 224.436 244.387 224.554C244.387 224.672 244.34 224.786 244.257 224.869C244.173 224.953 244.059 225 243.941 225Z" fill="#CACACA"/>
</g>
<defs>
<clipPath id="clip0_9_374">
<rect width="345" height="225" fill="white"/>
</clipPath>
</defs>
</svg>
