<svg width="30" height="30" viewBox="0 0 30 30" fill="none" xmlns="http://www.w3.org/2000/svg">
<path d="M18.8172 27.7628V20.3452C18.8172 20.0173 18.6832 19.7029 18.4445 19.4711C18.2058 19.2392 17.8821 19.109 17.5445 19.109H12.4536C12.1161 19.109 11.7923 19.2392 11.5537 19.4711C11.315 19.7029 11.1809 20.0173 11.1809 20.3452V27.7628C11.1809 28.0906 11.0468 28.405 10.8082 28.6369C10.5695 28.8687 10.2458 28.999 9.90832 28.999L2.27289 29C2.10574 29 1.94022 28.9681 1.78579 28.9059C1.63135 28.8438 1.49103 28.7528 1.37283 28.638C1.25463 28.5232 1.16087 28.3869 1.0969 28.2369C1.03293 28.0869 1 27.9261 1 27.7638V13.4759C1 13.3037 1.03705 13.1333 1.10878 12.9758C1.1805 12.8183 1.28532 12.6771 1.41652 12.5612L14.1429 1.32157C14.3772 1.11466 14.6824 1.00001 14.9991 1C15.3157 0.99999 15.621 1.11462 15.8553 1.32151L28.5834 12.5612C28.7146 12.6771 28.8195 12.8183 28.8912 12.9758C28.9629 13.1334 29 13.3037 29 13.476V27.7638C29 27.9261 28.9671 28.0869 28.9031 28.2369C28.8391 28.3869 28.7454 28.5232 28.6272 28.638C28.509 28.7528 28.3686 28.8438 28.2142 28.9059C28.0598 28.9681 27.8943 29 27.7271 29L20.0898 28.999C19.7523 28.999 19.4286 28.8687 19.19 28.6369C18.9513 28.405 18.8172 28.0906 18.8172 27.7628V27.7628Z" stroke="white" stroke-width="2" stroke-linecap="round" stroke-linejoin="round"/>
</svg>
