<svg width="28" height="28" viewBox="0 0 28 28" fill="none" xmlns="http://www.w3.org/2000/svg">
<path d="M14 19.25C16.8995 19.25 19.25 16.8995 19.25 14C19.25 11.1005 16.8995 8.75 14 8.75C11.1005 8.75 8.75 11.1005 8.75 14C8.75 16.8995 11.1005 19.25 14 19.25Z" stroke="white" stroke-width="2" stroke-linecap="round" stroke-linejoin="round"/>
<path d="M20.0879 7.11886C20.3681 7.36696 20.633 7.63184 20.8811 7.91206L23.8695 8.33879C24.3541 9.18266 24.7277 10.0856 24.9811 11.0251L23.1705 13.4392C23.1705 13.4392 23.1933 14.1873 23.1706 14.5608L24.9819 16.9757C24.7279 17.9151 24.3536 18.8177 23.8685 19.6613L20.8811 20.088C20.8811 20.088 20.3683 20.6331 20.0881 20.8811L19.6613 23.8695C18.8175 24.3541 17.9145 24.7278 16.975 24.9812L14.561 23.1706C14.1875 23.1933 13.8129 23.1933 13.4393 23.1706L11.0244 24.982C10.085 24.7279 9.18239 24.3537 8.33884 23.8685L7.91219 20.8813C7.63198 20.6332 7.36709 20.3683 7.11898 20.0881L4.1306 19.6614C3.64599 18.8175 3.27234 17.9146 3.01894 16.975L4.82959 14.5609C4.82959 14.5609 4.80681 13.8129 4.82952 13.4393L3.01816 11.0245C3.27219 10.0851 3.64644 9.18242 4.13163 8.33887L7.11883 7.91222C7.36693 7.63201 7.63181 7.36712 7.91203 7.11901L8.33876 4.13063C9.18263 3.64601 10.0855 3.27237 11.0251 3.01897L13.4391 4.82956C13.8126 4.80685 14.1872 4.80684 14.5608 4.82955L16.9757 3.01819C17.915 3.27222 18.8177 3.64648 19.6613 4.13166L20.0879 7.11886Z" stroke="white" stroke-width="2" stroke-linecap="round" stroke-linejoin="round"/>
</svg>
